<svg xmlns="http://www.w3.org/2000/svg" xmlns:xlink="http://www.w3.org/1999/xlink" width="456" zoomAndPan="magnify" viewBox="0 0 342 374.999991" height="500" preserveAspectRatio="xMidYMid meet" version="1.0"><defs><clipPath id="b34e027a86"><path d="M 0 0 L 258 0 L 258 170 L 0 170 Z M 0 0 " clip-rule="nonzero"/></clipPath><clipPath id="be5032381f"><path d="M 132.804688 0 C 59.472656 0 0.03125 59.488281 0.03125 132.878906 C 0.03125 143.523438 1.757812 154.882812 4.785156 166.660156 C 40.207031 171.394531 76.433594 169.992188 111.347656 162.257812 C 163.722656 150.664062 223.679688 123.421875 257.753906 87.898438 C 239.316406 36.636719 190.347656 0 132.804688 0 Z M 41.5 85.695312 L 41.464844 85.136719 C 41.464844 73.003906 51.292969 63.167969 63.425781 63.167969 C 65.972656 63.167969 68.40625 63.621094 70.679688 64.417969 C 73.027344 58.097656 79.097656 53.589844 86.21875 53.589844 C 94.246094 53.589844 100.949219 59.296875 102.492188 66.886719 C 102.878906 66.867188 103.265625 66.832031 103.664062 66.832031 C 114.613281 66.832031 123.632812 75.074219 124.894531 85.707031 L 41.5 85.707031 Z M 130.777344 116.90625 L 130.765625 116.628906 C 130.765625 110.554688 135.679688 105.636719 141.75 105.636719 C 143.019531 105.636719 144.238281 105.863281 145.367188 106.261719 C 146.542969 103.101562 149.570312 100.847656 153.136719 100.847656 C 157.15625 100.847656 160.507812 103.707031 161.273438 107.492188 C 161.46875 107.480469 161.664062 107.460938 161.867188 107.460938 C 167.339844 107.460938 171.855469 111.578125 172.480469 116.898438 L 130.777344 116.898438 Z M 130.777344 116.90625 " clip-rule="nonzero"/></clipPath><clipPath id="fd61764c8b"><path d="M 54 102 L 266 102 L 266 375 L 54 375 Z M 54 102 " clip-rule="nonzero"/></clipPath><clipPath id="ff0241a3fb"><path d="M 265.566406 132.878906 C 265.566406 225.316406 132.792969 375 132.792969 375 C 132.792969 375 91.511719 328.828125 54.96875 271.757812 C 90.507812 258.058594 124.917969 241.882812 156.585938 220.832031 C 201.15625 191.195312 240.21875 150.675781 261.988281 102.285156 C 264.335938 112.128906 265.566406 122.355469 265.566406 132.878906 Z M 265.566406 132.878906 " clip-rule="nonzero"/></clipPath><clipPath id="8275848cae"><path d="M 265 5 L 342 5 L 342 84 L 265 84 Z M 265 5 " clip-rule="nonzero"/></clipPath><clipPath id="f305cf0c96"><path d="M 341.925781 8.230469 L 341.234375 16.230469 C 340.890625 18.183594 339.46875 20.902344 338.046875 22.292969 L 329.113281 31.039062 C 327.699219 32.429688 327.023438 35.09375 327.601562 37.003906 L 336.96875 67.460938 C 337.558594 69.367188 337.507812 72.429688 336.871094 74.320312 L 336.773438 74.578125 C 336.128906 76.464844 334.726562 76.625 333.648438 74.953125 L 315.921875 47.5625 C 314.84375 45.898438 312.753906 45.609375 311.257812 46.902344 L 293.660156 62.292969 C 292.171875 63.597656 291.253906 66.242188 291.632812 68.191406 L 293.226562 76.484375 C 293.617188 78.425781 293.496094 81.285156 292.980469 82.847656 C 292.460938 84.414062 291.148438 84.335938 290.039062 82.710938 L 284.199219 74.09375 C 283.085938 72.472656 281.320312 71.902344 280.253906 72.875 C 279.1875 73.84375 277.722656 74.675781 276.964844 74.71875 C 276.222656 74.769531 275.640625 74.308594 275.671875 73.691406 C 275.707031 73.078125 276.296875 71.523438 277.03125 70.242188 C 277.753906 68.949219 276.890625 67.191406 275.113281 66.304688 L 274.628906 66.066406 C 274.640625 66.023438 274.648438 65.972656 274.660156 65.929688 C 274.640625 65.972656 274.605469 66.003906 274.585938 66.046875 L 267.945312 62.757812 C 266.179688 61.894531 265.1875 60.578125 265.75 59.855469 C 266.320312 59.132812 268.378906 58.636719 270.371094 58.753906 L 282.183594 59.402344 C 284.164062 59.523438 286.65625 58.257812 287.730469 56.597656 L 299.824219 38.070312 C 300.910156 36.410156 300.382812 34.273438 298.648438 33.304688 L 271.578125 18.238281 C 269.832031 17.289062 269.550781 15.898438 270.910156 15.164062 C 272.269531 14.453125 274.941406 14.214844 276.878906 14.644531 L 310.351562 21.136719 C 312.289062 21.582031 314.921875 20.738281 316.234375 19.238281 L 325.082031 9.523438 C 326.40625 8.023438 329.046875 6.546875 331.007812 6.210938 L 338.972656 5.285156 C 340.933594 4.949219 342.25 6.277344 341.925781 8.230469 Z M 341.925781 8.230469 " clip-rule="nonzero"/></clipPath><clipPath id="8a258bd54f"><path d="M 274 65 L 275 65 L 275 67 L 274 67 Z M 274 65 " clip-rule="nonzero"/></clipPath><clipPath id="41e2e80f37"><path d="M 274.574219 66.035156 L 274.605469 66.058594 C 274.617188 66.015625 274.628906 65.960938 274.640625 65.917969 C 274.617188 65.960938 274.597656 66.003906 274.574219 66.035156 Z M 274.574219 66.035156 " clip-rule="nonzero"/></clipPath></defs><g clip-path="url(#b34e027a86)"><g clip-path="url(#be5032381f)"><path fill="#151c2e" d="M 0.03125 0 L 0.03125 171.394531 L 257.753906 171.394531 L 257.753906 0 Z M 0.03125 0 " fill-opacity="1" fill-rule="nonzero"/></g></g><g clip-path="url(#fd61764c8b)"><g clip-path="url(#ff0241a3fb)"><path fill="#fad000" d="M 54.96875 102.285156 L 54.96875 375 L 265.566406 375 L 265.566406 102.285156 Z M 54.96875 102.285156 " fill-opacity="1" fill-rule="nonzero"/></g></g><g clip-path="url(#8275848cae)"><g clip-path="url(#f305cf0c96)"><path fill="#151c2e" d="M 265.1875 4.949219 L 265.1875 84.414062 L 342 84.414062 L 342 4.949219 Z M 265.1875 4.949219 " fill-opacity="1" fill-rule="nonzero"/></g></g><g clip-path="url(#8a258bd54f)"><g clip-path="url(#41e2e80f37)"><path fill="#151c2e" d="M 274.671875 65.925781 L 274.578125 65.902344 L 274.539062 66.046875 L 274.636719 66.074219 Z M 274.671875 65.925781 " fill-opacity="1" fill-rule="nonzero"/></g></g></svg>