<svg xmlns="http://www.w3.org/2000/svg" xmlns:xlink="http://www.w3.org/1999/xlink" width="300" zoomAndPan="magnify" viewBox="0 0 224.87999 206.249992" height="275" preserveAspectRatio="xMidYMid meet" version="1.0"><defs><clipPath id="f5ca69fc6d"><path d="M 0.347656 0 L 224.414062 0 L 224.414062 205.503906 L 0.347656 205.503906 Z M 0.347656 0 " clip-rule="nonzero"/></clipPath><clipPath id="53df8cc02f"><path d="M 71.628906 51.375 L 153.082031 51.375 L 153.082031 154.5 L 71.628906 154.5 Z M 71.628906 51.375 " clip-rule="nonzero"/></clipPath><clipPath id="163e478235"><path d="M 132 76 L 145.90625 76 L 145.90625 93 L 132 93 Z M 132 76 " clip-rule="nonzero"/></clipPath><clipPath id="65524a6106"><path d="M 115.867188 147.226562 L 108.871094 147.226562 C 92.328125 147.226562 78.898438 133.734375 78.898438 117.078125 L 78.898438 88.796875 C 78.898438 72.15625 92.3125 58.652344 108.871094 58.652344 L 115.867188 58.652344 C 132.414062 58.652344 145.84375 72.140625 145.84375 88.796875 L 145.84375 117.078125 C 145.84375 133.734375 132.414062 147.226562 115.867188 147.226562 Z M 115.867188 147.226562 " clip-rule="nonzero"/></clipPath><clipPath id="16742b5bbd"><path d="M 78.832031 83 L 122 83 L 122 111 L 78.832031 111 Z M 78.832031 83 " clip-rule="nonzero"/></clipPath><clipPath id="54a7272cce"><path d="M 115.867188 147.226562 L 108.871094 147.226562 C 92.328125 147.226562 78.898438 133.734375 78.898438 117.078125 L 78.898438 88.796875 C 78.898438 72.15625 92.3125 58.652344 108.871094 58.652344 L 115.867188 58.652344 C 132.414062 58.652344 145.84375 72.140625 145.84375 88.796875 L 145.84375 117.078125 C 145.84375 133.734375 132.414062 147.226562 115.867188 147.226562 Z M 115.867188 147.226562 " clip-rule="nonzero"/></clipPath><clipPath id="e35c74c9c9"><path d="M 89 115 L 143 115 L 143 147.273438 L 89 147.273438 Z M 89 115 " clip-rule="nonzero"/></clipPath><clipPath id="2f958282d3"><path d="M 115.867188 147.226562 L 108.871094 147.226562 C 92.328125 147.226562 78.898438 133.734375 78.898438 117.078125 L 78.898438 88.796875 C 78.898438 72.15625 92.3125 58.652344 108.871094 58.652344 L 115.867188 58.652344 C 132.414062 58.652344 145.84375 72.140625 145.84375 88.796875 L 145.84375 117.078125 C 145.84375 133.734375 132.414062 147.226562 115.867188 147.226562 Z M 115.867188 147.226562 " clip-rule="nonzero"/></clipPath></defs><g clip-path="url(#f5ca69fc6d)"><path fill="#ffffff" d="M 0.347656 0 L 224.53125 0 L 224.53125 212.976562 L 0.347656 212.976562 Z M 0.347656 0 " fill-opacity="1" fill-rule="nonzero"/><path fill="#ffffff" d="M 0.347656 0 L 224.53125 0 L 224.53125 205.503906 L 0.347656 205.503906 Z M 0.347656 0 " fill-opacity="1" fill-rule="nonzero"/><path fill="#f8bd31" d="M 0.347656 0 L 224.53125 0 L 224.53125 205.503906 L 0.347656 205.503906 Z M 0.347656 0 " fill-opacity="1" fill-rule="nonzero"/></g><path fill="#151c2e" d="M 108.871094 150.871094 C 90.347656 150.871094 75.269531 135.710938 75.269531 117.078125 L 75.269531 88.796875 C 75.269531 70.167969 90.347656 55.003906 108.871094 55.003906 L 115.867188 55.003906 C 134.394531 55.003906 149.46875 70.167969 149.46875 88.796875 L 149.46875 117.078125 C 149.46875 135.710938 134.394531 150.871094 115.867188 150.871094 Z M 108.871094 150.871094 " fill-opacity="1" fill-rule="nonzero"/><g clip-path="url(#53df8cc02f)"><path fill="#ffffff" d="M 115.867188 58.667969 C 132.414062 58.667969 145.84375 72.15625 145.84375 88.8125 L 145.84375 117.09375 C 145.84375 133.734375 132.429688 147.242188 115.867188 147.242188 L 108.871094 147.242188 C 92.328125 147.242188 78.898438 133.75 78.898438 117.09375 L 78.898438 88.796875 C 78.898438 72.15625 92.3125 58.652344 108.871094 58.652344 L 115.867188 58.652344 M 115.867188 51.375 L 108.871094 51.375 C 103.859375 51.375 98.972656 52.371094 94.386719 54.316406 C 89.949219 56.195312 85.972656 58.890625 82.554688 62.328125 C 79.136719 65.765625 76.453125 69.765625 74.585938 74.230469 C 72.636719 78.855469 71.644531 83.753906 71.644531 88.796875 L 71.644531 117.078125 C 71.644531 122.121094 72.636719 127.035156 74.570312 131.644531 C 76.4375 136.109375 79.121094 140.109375 82.539062 143.546875 C 85.957031 146.984375 89.933594 149.683594 94.371094 151.5625 C 98.972656 153.519531 103.84375 154.5 108.855469 154.5 L 115.851562 154.5 C 120.867188 154.5 125.753906 153.503906 130.335938 151.5625 C 134.777344 149.683594 138.753906 146.984375 142.171875 143.546875 C 145.589844 140.109375 148.273438 136.109375 150.140625 131.644531 C 152.089844 127.019531 153.0625 122.121094 153.0625 117.078125 L 153.0625 88.796875 C 153.0625 83.753906 152.074219 78.839844 150.140625 74.230469 C 148.273438 69.765625 145.589844 65.765625 142.171875 62.328125 C 138.753906 58.890625 134.777344 56.195312 130.335938 54.316406 C 125.769531 52.355469 120.882812 51.375 115.867188 51.375 Z M 115.867188 51.375 " fill-opacity="1" fill-rule="nonzero"/></g><g clip-path="url(#163e478235)"><g clip-path="url(#65524a6106)"><path fill="#ffffff" d="M 156.894531 81.808594 C 155.90625 81.808594 154.996094 82.082031 154.195312 82.550781 C 153.828125 79.113281 150.9375 76.445312 147.425781 76.445312 C 143.929688 76.445312 141.054688 79.097656 140.667969 82.515625 C 139.886719 82.066406 138.992188 81.808594 138.035156 81.808594 C 135.0625 81.808594 132.667969 84.234375 132.667969 87.207031 C 132.667969 90.195312 135.082031 92.601562 138.035156 92.601562 L 156.671875 92.601562 C 156.703125 92.601562 156.753906 92.601562 156.785156 92.601562 C 156.816406 92.601562 156.863281 92.601562 156.894531 92.601562 C 159.867188 92.601562 162.261719 90.179688 162.261719 87.207031 C 162.261719 84.21875 159.851562 81.808594 156.894531 81.808594 Z M 156.894531 81.808594 " fill-opacity="1" fill-rule="nonzero"/></g></g><g clip-path="url(#16742b5bbd)"><g clip-path="url(#54a7272cce)"><path fill="#ffffff" d="M 121.28125 100.9375 C 121.28125 100.921875 121.265625 100.90625 121.265625 100.875 L 121.265625 100.859375 C 120.578125 98.707031 118.566406 97.148438 116.203125 97.148438 C 115.949219 97.148438 115.707031 97.164062 115.46875 97.210938 C 115.691406 96.523438 115.820312 95.800781 115.820312 95.042969 C 115.820312 91.238281 112.753906 88.15625 108.96875 88.15625 C 106.894531 88.15625 105.039062 89.085938 103.777344 90.5625 C 102.515625 86.582031 98.8125 83.691406 94.4375 83.691406 C 89.292969 83.691406 85.078125 87.6875 84.679688 92.765625 C 83.113281 90.757812 80.683594 89.472656 77.953125 89.472656 C 73.242188 89.472656 69.410156 93.308594 69.410156 98.0625 C 69.410156 98.207031 69.425781 98.351562 69.425781 98.496094 L 69.410156 98.496094 L 69.425781 98.675781 C 69.441406 98.898438 69.457031 99.109375 69.488281 99.316406 L 69.507812 99.492188 C 69.507812 105.707031 75.269531 110.414062 81.453125 110.414062 L 112.847656 110.414062 C 117.671875 110.398438 122.816406 105.402344 121.28125 100.9375 Z M 103.042969 98.480469 L 102.914062 98.480469 C 102.933594 98.449219 102.964844 98.417969 102.980469 98.367188 C 102.996094 98.402344 103.011719 98.433594 103.042969 98.480469 Z M 103.042969 98.480469 " fill-opacity="1" fill-rule="nonzero"/></g></g><g clip-path="url(#e35c74c9c9)"><g clip-path="url(#2f958282d3)"><path fill="#0b0e17" d="M 127.367188 161.503906 L 89.230469 115.457031 L 103.84375 115.457031 L 142.1875 137.363281 " fill-opacity="1" fill-rule="nonzero"/></g></g><path fill="#808080" d="M 82.203125 75.066406 L 142.554688 75.066406 C 137.585938 65.332031 127.511719 58.652344 115.867188 58.652344 L 108.871094 58.652344 C 97.246094 58.667969 87.167969 65.332031 82.203125 75.066406 Z M 82.203125 75.066406 " fill-opacity="1" fill-rule="nonzero"/><path stroke-linecap="round" transform="matrix(0.159703, 0, 0, 0.160606, 35.712777, 25.855411)" fill="none" stroke-linejoin="miter" d="M 452.291762 273.111756 L 522.710382 273.111756 " stroke="#ffffff" stroke-width="11.351" stroke-opacity="1" stroke-miterlimit="10"/></svg>