<svg xmlns="http://www.w3.org/2000/svg" xmlns:xlink="http://www.w3.org/1999/xlink" width="1080" zoomAndPan="magnify" viewBox="0 0 810 809.999993" height="1080" preserveAspectRatio="xMidYMid meet" version="1.0"><defs><clipPath id="9d833b6463"><path d="M 205.519531 122 L 604.519531 122 L 604.519531 688 L 205.519531 688 Z M 205.519531 122 " clip-rule="nonzero"/></clipPath></defs><rect x="-81" width="972" fill="#ffffff" y="-80.999999" height="971.999992" fill-opacity="1"/><rect x="-81" width="972" fill="#ffffff" y="-80.999999" height="971.999992" fill-opacity="1"/><rect x="-81" width="972" fill="#f8bd31" y="-80.999999" height="971.999992" fill-opacity="1"/><path fill="#ffffff" d="M 404.957031 134.304688 C 508.449219 134.304688 592.308594 218.191406 592.308594 321.632812 C 592.308594 399.21875 453.101562 588.921875 404.957031 675.695312 C 358.800781 592.414062 217.605469 394.660156 217.605469 321.632812 C 217.605469 218.191406 301.503906 134.304688 404.957031 134.304688 Z M 488.699219 314.578125 C 488.699219 268.476562 451.089844 230.871094 404.957031 230.871094 C 358.863281 230.871094 321.253906 268.476562 321.253906 314.578125 C 321.253906 360.667969 358.863281 398.273438 404.957031 398.273438 C 451.089844 398.273438 488.699219 360.667969 488.699219 314.578125 Z M 488.699219 314.578125 " fill-opacity="1" fill-rule="nonzero"/><g clip-path="url(#9d833b6463)"><path fill="#ffffff" d="M 404.957031 687.820312 C 400.550781 687.816406 396.492188 685.425781 394.355469 681.574219 C 382.109375 659.484375 363.277344 629.523438 341.472656 594.839844 C 280.886719 498.46875 205.484375 378.527344 205.484375 321.632812 C 205.484375 211.65625 294.96875 122.179688 404.957031 122.179688 C 514.949219 122.179688 604.433594 211.65625 604.433594 321.632812 C 604.433594 381.492188 533.289062 493.40625 470.519531 592.144531 C 448.945312 626.074219 428.574219 658.125 415.558594 681.578125 C 413.421875 685.429688 409.363281 687.820312 404.957031 687.820312 Z M 404.957031 146.425781 C 308.335938 146.425781 229.730469 225.023438 229.730469 321.632812 C 229.730469 371.539062 306.179688 493.144531 362 581.9375 C 378.492188 608.167969 393.296875 631.71875 404.96875 651.417969 C 417.519531 630.316406 433.433594 605.28125 450.054688 579.136719 C 504.972656 492.75 580.1875 374.4375 580.1875 321.632812 C 580.1875 225.023438 501.578125 146.425781 404.957031 146.425781 Z M 404.957031 146.425781 " fill-opacity="1" fill-rule="nonzero"/></g><path fill="#ffffff" d="M 404.957031 410.394531 C 352.117188 410.394531 309.128906 367.410156 309.128906 314.578125 C 309.128906 261.738281 352.117188 218.75 404.957031 218.75 C 457.816406 218.75 500.824219 261.738281 500.824219 314.578125 C 500.824219 367.410156 457.816406 410.394531 404.957031 410.394531 Z M 404.957031 242.996094 C 365.488281 242.996094 333.378906 275.105469 333.378906 314.578125 C 333.378906 354.042969 365.488281 386.148438 404.957031 386.148438 C 444.449219 386.148438 476.574219 354.042969 476.574219 314.578125 C 476.574219 275.105469 444.449219 242.996094 404.957031 242.996094 Z M 404.957031 242.996094 " fill-opacity="1" fill-rule="nonzero"/></svg>