<svg xmlns="http://www.w3.org/2000/svg" xmlns:xlink="http://www.w3.org/1999/xlink" width="500" zoomAndPan="magnify" viewBox="0 0 375 374.999991" height="500" preserveAspectRatio="xMidYMid meet" version="1.0"><defs><clipPath id="57a88e2fe5"><path d="M 16.363281 0 L 275 0 L 275 170 L 16.363281 170 Z M 16.363281 0 " clip-rule="nonzero"/></clipPath><clipPath id="3f093812eb"><path d="M 149.167969 0 C 75.832031 0 16.390625 59.488281 16.390625 132.878906 C 16.390625 143.523438 18.117188 154.882812 21.144531 166.660156 C 56.566406 171.394531 92.796875 169.992188 127.710938 162.257812 C 180.085938 150.664062 240.042969 123.421875 274.117188 87.898438 C 255.679688 36.636719 206.710938 0 149.167969 0 Z M 57.859375 85.695312 L 57.828125 85.136719 C 57.828125 73.003906 67.65625 63.167969 79.789062 63.167969 C 82.332031 63.167969 84.765625 63.621094 87.042969 64.417969 C 89.390625 58.097656 95.457031 53.589844 102.582031 53.589844 C 110.609375 53.589844 117.3125 59.296875 118.851562 66.886719 C 119.242188 66.867188 119.628906 66.832031 120.027344 66.832031 C 130.976562 66.832031 139.996094 75.074219 141.257812 85.707031 L 57.859375 85.707031 Z M 147.140625 116.90625 L 147.128906 116.628906 C 147.128906 110.554688 152.042969 105.636719 158.109375 105.636719 C 159.382812 105.636719 160.601562 105.863281 161.730469 106.261719 C 162.90625 103.101562 165.933594 100.847656 169.5 100.847656 C 173.519531 100.847656 176.871094 103.707031 177.636719 107.492188 C 177.832031 107.480469 178.027344 107.460938 178.230469 107.460938 C 183.703125 107.460938 188.21875 111.578125 188.84375 116.898438 L 147.140625 116.898438 Z M 147.140625 116.90625 " clip-rule="nonzero"/></clipPath><clipPath id="8726b60966"><path d="M 71 102 L 282 102 L 282 375 L 71 375 Z M 71 102 " clip-rule="nonzero"/></clipPath><clipPath id="df84d12d72"><path d="M 281.929688 132.878906 C 281.929688 225.316406 149.15625 375 149.15625 375 C 149.15625 375 107.871094 328.828125 71.328125 271.757812 C 106.871094 258.058594 141.277344 241.882812 172.949219 220.832031 C 217.519531 191.195312 256.585938 150.675781 278.355469 102.285156 C 280.703125 112.128906 281.929688 122.355469 281.929688 132.878906 Z M 281.929688 132.878906 " clip-rule="nonzero"/></clipPath><clipPath id="a3c570cadc"><path d="M 281 5 L 358.363281 5 L 358.363281 84 L 281 84 Z M 281 5 " clip-rule="nonzero"/></clipPath><clipPath id="480c713dfb"><path d="M 358.292969 8.230469 L 357.601562 16.230469 C 357.257812 18.183594 355.835938 20.902344 354.414062 22.292969 L 345.480469 31.039062 C 344.066406 32.429688 343.390625 35.09375 343.972656 37.003906 L 353.335938 67.460938 C 353.929688 69.367188 353.875 72.429688 353.238281 74.320312 L 353.140625 74.578125 C 352.496094 76.464844 351.09375 76.625 350.015625 74.953125 L 332.289062 47.5625 C 331.210938 45.898438 329.121094 45.609375 327.625 46.902344 L 310.027344 62.292969 C 308.539062 63.597656 307.621094 66.242188 308 68.191406 L 309.59375 76.484375 C 309.980469 78.425781 309.863281 81.285156 309.347656 82.847656 C 308.828125 84.414062 307.515625 84.335938 306.40625 82.710938 L 300.5625 74.09375 C 299.453125 72.472656 297.6875 71.902344 296.621094 72.875 C 295.554688 73.84375 294.085938 74.675781 293.332031 74.71875 C 292.589844 74.769531 292.007812 74.308594 292.039062 73.691406 C 292.070312 73.078125 292.664062 71.523438 293.398438 70.242188 C 294.121094 68.949219 293.257812 67.191406 291.480469 66.304688 L 290.996094 66.066406 C 291.003906 66.023438 291.015625 65.972656 291.027344 65.929688 C 291.003906 65.972656 290.972656 66.003906 290.953125 66.046875 L 284.3125 62.757812 C 282.546875 61.894531 281.554688 60.578125 282.113281 59.855469 C 282.6875 59.132812 284.746094 58.636719 286.738281 58.753906 L 298.546875 59.402344 C 300.53125 59.523438 303.019531 58.257812 304.097656 56.597656 L 316.191406 38.070312 C 317.277344 36.410156 316.75 34.273438 315.015625 33.304688 L 287.945312 18.238281 C 286.199219 17.289062 285.917969 15.898438 287.277344 15.164062 C 288.632812 14.453125 291.308594 14.214844 293.246094 14.644531 L 326.71875 21.136719 C 328.65625 21.582031 331.289062 20.738281 332.601562 19.238281 L 341.449219 9.523438 C 342.773438 8.023438 345.414062 6.546875 347.375 6.210938 L 355.339844 5.285156 C 357.300781 4.949219 358.617188 6.277344 358.292969 8.230469 Z M 358.292969 8.230469 " clip-rule="nonzero"/></clipPath><clipPath id="be7d363fa3"><path d="M 290 65 L 292 65 L 292 67 L 290 67 Z M 290 65 " clip-rule="nonzero"/></clipPath><clipPath id="a86294125e"><path d="M 290.941406 66.035156 L 290.972656 66.058594 C 290.984375 66.015625 290.996094 65.960938 291.003906 65.917969 C 290.984375 65.960938 290.960938 66.003906 290.941406 66.035156 Z M 290.941406 66.035156 " clip-rule="nonzero"/></clipPath></defs><rect x="-37.5" width="450" fill="#ffffff" y="-37.499999" height="449.999989" fill-opacity="1"/><rect x="-37.5" width="450" fill="#ffffff" y="-37.499999" height="449.999989" fill-opacity="1"/><rect x="-37.5" width="450" fill="#151c2e" y="-37.499999" height="449.999989" fill-opacity="1"/><g clip-path="url(#57a88e2fe5)"><g clip-path="url(#3f093812eb)"><path fill="#444958" d="M 16.390625 0 L 16.390625 171.394531 L 274.117188 171.394531 L 274.117188 0 Z M 16.390625 0 " fill-opacity="1" fill-rule="nonzero"/></g></g><g clip-path="url(#8726b60966)"><g clip-path="url(#df84d12d72)"><path fill="#444958" d="M 71.328125 102.285156 L 71.328125 375 L 281.929688 375 L 281.929688 102.285156 Z M 71.328125 102.285156 " fill-opacity="1" fill-rule="nonzero"/></g></g><g clip-path="url(#a3c570cadc)"><g clip-path="url(#480c713dfb)"><path fill="#444958" d="M 281.554688 4.949219 L 281.554688 84.414062 L 358.363281 84.414062 L 358.363281 4.949219 Z M 281.554688 4.949219 " fill-opacity="1" fill-rule="nonzero"/></g></g><g clip-path="url(#be7d363fa3)"><g clip-path="url(#a86294125e)"><path fill="#444958" d="M 291.039062 65.925781 L 290.945312 65.902344 L 290.90625 66.046875 L 291 66.074219 Z M 291.039062 65.925781 " fill-opacity="1" fill-rule="nonzero"/></g></g></svg>