<svg xmlns="http://www.w3.org/2000/svg" xmlns:xlink="http://www.w3.org/1999/xlink" width="500" zoomAndPan="magnify" viewBox="0 0 375 374.999991" height="500" preserveAspectRatio="xMidYMid meet" version="1.0"><defs><clipPath id="fbee6e10b6"><path d="M 0 0 L 258 0 L 258 170 L 0 170 Z M 0 0 " clip-rule="nonzero"/></clipPath><clipPath id="c6e4212037"><path d="M 132.804688 0 C 59.46875 0 0.0273438 59.488281 0.0273438 132.878906 C 0.0273438 143.523438 1.75 154.882812 4.78125 166.660156 C 40.203125 171.394531 76.433594 169.992188 111.347656 162.257812 C 163.71875 150.664062 223.679688 123.421875 257.753906 87.898438 C 239.316406 36.636719 190.347656 0 132.804688 0 Z M 41.496094 85.695312 L 41.460938 85.136719 C 41.460938 73.003906 51.289062 63.167969 63.425781 63.167969 C 65.96875 63.167969 68.402344 63.621094 70.675781 64.417969 C 73.027344 58.097656 79.09375 53.589844 86.21875 53.589844 C 94.246094 53.589844 100.949219 59.296875 102.488281 66.886719 C 102.878906 66.867188 103.265625 66.832031 103.664062 66.832031 C 114.613281 66.832031 123.632812 75.074219 124.894531 85.707031 L 41.496094 85.707031 Z M 130.777344 116.90625 L 130.765625 116.628906 C 130.765625 110.554688 135.679688 105.636719 141.746094 105.636719 C 143.019531 105.636719 144.238281 105.863281 145.367188 106.261719 C 146.542969 103.101562 149.570312 100.847656 153.136719 100.847656 C 157.15625 100.847656 160.507812 103.707031 161.273438 107.492188 C 161.46875 107.480469 161.664062 107.460938 161.867188 107.460938 C 167.339844 107.460938 171.855469 111.578125 172.480469 116.898438 L 130.777344 116.898438 Z M 130.777344 116.90625 " clip-rule="nonzero"/></clipPath><clipPath id="49a2b88af0"><path d="M 54 102 L 266 102 L 266 375 L 54 375 Z M 54 102 " clip-rule="nonzero"/></clipPath><clipPath id="8d92c23781"><path d="M 265.566406 132.878906 C 265.566406 225.316406 132.792969 375 132.792969 375 C 132.792969 375 91.507812 328.828125 54.964844 271.757812 C 90.507812 258.058594 124.914062 241.882812 156.585938 220.832031 C 201.15625 191.195312 240.222656 150.675781 261.988281 102.285156 C 264.339844 112.128906 265.566406 122.355469 265.566406 132.878906 Z M 265.566406 132.878906 " clip-rule="nonzero"/></clipPath><clipPath id="ff201d48d1"><path d="M 265 5 L 342 5 L 342 84 L 265 84 Z M 265 5 " clip-rule="nonzero"/></clipPath><clipPath id="2986a6d8b0"><path d="M 341.929688 8.230469 L 341.238281 16.230469 C 340.894531 18.183594 339.472656 20.902344 338.050781 22.292969 L 329.117188 31.039062 C 327.703125 32.429688 327.027344 35.09375 327.605469 37.003906 L 336.972656 67.460938 C 337.566406 69.367188 337.511719 72.429688 336.875 74.320312 L 336.777344 74.578125 C 336.132812 76.464844 334.730469 76.625 333.652344 74.953125 L 315.925781 47.5625 C 314.847656 45.898438 312.757812 45.609375 311.257812 46.902344 L 293.660156 62.292969 C 292.175781 63.597656 291.257812 66.242188 291.636719 68.191406 L 293.230469 76.484375 C 293.617188 78.425781 293.5 81.285156 292.984375 82.847656 C 292.464844 84.414062 291.152344 84.335938 290.039062 82.710938 L 284.199219 74.09375 C 283.089844 72.472656 281.324219 71.902344 280.257812 72.875 C 279.1875 73.84375 277.722656 74.675781 276.96875 74.71875 C 276.226562 74.769531 275.644531 74.308594 275.675781 73.691406 C 275.707031 73.078125 276.300781 71.523438 277.035156 70.242188 C 277.757812 68.949219 276.894531 67.191406 275.117188 66.304688 L 274.628906 66.066406 C 274.640625 66.023438 274.652344 65.972656 274.664062 65.929688 C 274.640625 65.972656 274.609375 66.003906 274.585938 66.046875 L 267.949219 62.757812 C 266.183594 61.894531 265.191406 60.578125 265.75 59.855469 C 266.320312 59.132812 268.378906 58.636719 270.375 58.753906 L 282.183594 59.402344 C 284.167969 59.523438 286.65625 58.257812 287.734375 56.597656 L 299.824219 38.070312 C 300.914062 36.410156 300.386719 34.273438 298.652344 33.304688 L 271.582031 18.238281 C 269.835938 17.289062 269.554688 15.898438 270.914062 15.164062 C 272.269531 14.453125 274.941406 14.214844 276.882812 14.644531 L 310.355469 21.136719 C 312.292969 21.582031 314.921875 20.738281 316.238281 19.238281 L 325.085938 9.523438 C 326.410156 8.023438 329.050781 6.546875 331.011719 6.210938 L 338.976562 5.285156 C 340.9375 4.949219 342.253906 6.277344 341.929688 8.230469 Z M 341.929688 8.230469 " clip-rule="nonzero"/></clipPath><clipPath id="07c2f8a0e0"><path d="M 274 65 L 275 65 L 275 67 L 274 67 Z M 274 65 " clip-rule="nonzero"/></clipPath><clipPath id="4458340ab0"><path d="M 274.578125 66.035156 L 274.609375 66.058594 C 274.621094 66.015625 274.628906 65.960938 274.640625 65.917969 C 274.621094 65.960938 274.597656 66.003906 274.578125 66.035156 Z M 274.578125 66.035156 " clip-rule="nonzero"/></clipPath></defs><g clip-path="url(#fbee6e10b6)"><g clip-path="url(#c6e4212037)"><path fill="#ffffff" d="M 0.0273438 0 L 0.0273438 171.394531 L 257.753906 171.394531 L 257.753906 0 Z M 0.0273438 0 " fill-opacity="1" fill-rule="nonzero"/></g></g><g clip-path="url(#49a2b88af0)"><g clip-path="url(#8d92c23781)"><path fill="#fad000" d="M 54.964844 102.285156 L 54.964844 375 L 265.566406 375 L 265.566406 102.285156 Z M 54.964844 102.285156 " fill-opacity="1" fill-rule="nonzero"/></g></g><g clip-path="url(#ff201d48d1)"><g clip-path="url(#2986a6d8b0)"><path fill="#ffffff" d="M 265.191406 4.949219 L 265.191406 84.414062 L 342 84.414062 L 342 4.949219 Z M 265.191406 4.949219 " fill-opacity="1" fill-rule="nonzero"/></g></g><g clip-path="url(#07c2f8a0e0)"><g clip-path="url(#4458340ab0)"><path fill="#ffffff" d="M 274.675781 65.925781 L 274.582031 65.902344 L 274.542969 66.046875 L 274.636719 66.074219 Z M 274.675781 65.925781 " fill-opacity="1" fill-rule="nonzero"/></g></g></svg>